<svg width="25" height="24" viewBox="0 0 25 24" fill="none" xmlns="http://www.w3.org/2000/svg">
<path fill-rule="evenodd" clip-rule="evenodd" d="M2 7.5C2 6.25735 3.00736 5.25 4.25 5.25H20.75C21.9926 5.25 23 6.25735 23 7.5V16.5C23 17.7426 21.9926 18.75 20.75 18.75H4.25C3.00736 18.75 2 17.7426 2 16.5V7.5ZM8.5625 12C8.5625 11.2751 7.97487 10.6875 7.25 10.6875C6.52513 10.6875 5.9375 11.2751 5.9375 12C5.9375 12.7249 6.52513 13.3125 7.25 13.3125C7.97487 13.3125 8.5625 12.7249 8.5625 12ZM15.5 12.5625C14.9822 12.5625 14.5625 12.9822 14.5625 13.5C14.5625 14.0178 14.9822 14.4375 15.5 14.4375H18.5C19.0178 14.4375 19.4375 14.0178 19.4375 13.5C19.4375 12.9822 19.0178 12.5625 18.5 12.5625H15.5ZM11 10.6875C11.7249 10.6875 12.3125 11.2751 12.3125 12C12.3125 12.7249 11.7249 13.3125 11 13.3125C10.2751 13.3125 9.6875 12.7249 9.6875 12C9.6875 11.2751 10.2751 10.6875 11 10.6875Z" fill="#081754"/>
</svg>
