<svg width="333" height="48" viewBox="0 0 333 48" fill="none" xmlns="http://www.w3.org/2000/svg">
<path d="M24.5 0.5H308.5C321.479 0.5 332 11.0213 332 24C332 36.9787 321.479 47.5 308.5 47.5H24.5C11.5213 47.5 1 36.9787 1 24C1 11.0213 11.5213 0.5 24.5 0.5Z" fill="white"/>
<path d="M24.5 0.5H308.5C321.479 0.5 332 11.0213 332 24C332 36.9787 321.479 47.5 308.5 47.5H24.5C11.5213 47.5 1 36.9787 1 24C1 11.0213 11.5213 0.5 24.5 0.5Z" stroke="#C9C9C9"/>
<path fill-rule="evenodd" clip-rule="evenodd" d="M23.6051 19.5275C24.022 18.6463 24.5844 17.8385 25.2697 17.1369C26.7782 15.5443 28.7892 14.4954 30.9793 14.1588C33.9752 13.6198 37.057 14.4692 39.3274 16.4597C39.4772 16.5902 39.5189 16.6636 39.3274 16.8268C38.4951 17.6427 37.6628 18.4586 36.7806 19.2745C36.6973 19.3561 36.6391 19.4622 36.4892 19.3235C34.2167 17.3698 30.7974 17.4442 28.6156 19.4948C27.8629 20.1957 27.2921 21.063 26.951 22.0242L26.7928 21.9263L23.6051 19.5275Z" fill="#F14336"/>
<path fill-rule="evenodd" clip-rule="evenodd" d="M26.926 25.9405C27.21 26.705 27.633 27.4127 28.1745 28.0293C29.4928 29.5382 31.5006 30.2905 33.5096 30.0282C34.4828 29.9272 35.4195 29.609 36.2479 29.0981L36.4892 29.3102L39.4523 31.5703C38.3777 32.5559 37.0619 33.2529 35.632 33.5938C32.4017 34.5215 28.9127 33.8387 26.2934 31.7661C25.1523 30.8942 24.2298 29.7778 23.5967 28.5025L26.926 25.9405Z" fill="#27B446"/>
<path fill-rule="evenodd" clip-rule="evenodd" d="M39.4523 31.5703L36.4892 29.3102L36.2479 29.0981C36.9212 28.6175 37.4664 27.985 37.8376 27.2541C37.98 26.954 38.0969 26.6429 38.1872 26.324C38.2537 26.1119 38.2288 26.0221 37.9541 26.0221C36.2895 26.0221 34.6665 26.0221 33.0268 26.0221C32.6773 26.0221 32.6773 26.0221 32.6773 25.6713C32.6773 24.578 32.6773 23.4928 32.6773 22.4076C32.6773 22.1955 32.6773 22.1139 32.9519 22.1139H42.0408C42.1989 22.1139 42.3071 22.1139 42.3321 22.3179C42.7835 24.8411 42.3181 27.4395 41.017 29.6611C40.6072 30.3783 40.0784 31.0235 39.4523 31.5703Z" fill="#528EF8"/>
<path fill-rule="evenodd" clip-rule="evenodd" d="M26.926 25.9405L23.5967 28.4699C23.0682 27.4895 22.7296 26.4217 22.598 25.3204C22.3286 23.4417 22.6176 21.5267 23.4303 19.8049C23.4802 19.707 23.5385 19.6172 23.5884 19.5275L26.7928 21.9263L26.951 22.0323C26.5184 23.2992 26.5097 24.6684 26.926 25.9405Z" fill="#FBBB02"/>
<path d="M69.0105 22.32C68.8078 21.9467 68.5145 21.664 68.1305 21.472C67.7572 21.2693 67.3145 21.168 66.8025 21.168C65.9172 21.168 65.2078 21.4613 64.6745 22.048C64.1412 22.624 63.8745 23.3973 63.8745 24.368C63.8745 25.4027 64.1518 26.2133 64.7065 26.8C65.2718 27.376 66.0452 27.664 67.0265 27.664C67.6985 27.664 68.2638 27.4933 68.7225 27.152C69.1918 26.8107 69.5332 26.32 69.7465 25.68H66.2745V23.664H72.2265V26.208C72.0238 26.8907 71.6772 27.5253 71.1865 28.112C70.7065 28.6987 70.0932 29.1733 69.3465 29.536C68.5998 29.8987 67.7572 30.08 66.8185 30.08C65.7092 30.08 64.7172 29.84 63.8425 29.36C62.9785 28.8693 62.3012 28.192 61.8105 27.328C61.3305 26.464 61.0905 25.4773 61.0905 24.368C61.0905 23.2587 61.3305 22.272 61.8105 21.408C62.3012 20.5333 62.9785 19.856 63.8425 19.376C64.7065 18.8853 65.6932 18.64 66.8025 18.64C68.1465 18.64 69.2772 18.9653 70.1945 19.616C71.1225 20.2667 71.7358 21.168 72.0345 22.32H69.0105ZM77.806 30.128C76.9313 30.128 76.142 29.9413 75.438 29.568C74.7447 29.1947 74.1953 28.6613 73.79 27.968C73.3953 27.2747 73.198 26.464 73.198 25.536C73.198 24.6187 73.4007 23.8133 73.806 23.12C74.2113 22.416 74.766 21.8773 75.47 21.504C76.174 21.1307 76.9633 20.944 77.838 20.944C78.7127 20.944 79.502 21.1307 80.206 21.504C80.91 21.8773 81.4647 22.416 81.87 23.12C82.2753 23.8133 82.478 24.6187 82.478 25.536C82.478 26.4533 82.27 27.264 81.854 27.968C81.4487 28.6613 80.8887 29.1947 80.174 29.568C79.47 29.9413 78.6807 30.128 77.806 30.128ZM77.806 27.76C78.3287 27.76 78.7713 27.568 79.134 27.184C79.5073 26.8 79.694 26.2507 79.694 25.536C79.694 24.8213 79.5127 24.272 79.15 23.888C78.798 23.504 78.3607 23.312 77.838 23.312C77.3047 23.312 76.862 23.504 76.51 23.888C76.158 24.2613 75.982 24.8107 75.982 25.536C75.982 26.2507 76.1527 26.8 76.494 27.184C76.846 27.568 77.2833 27.76 77.806 27.76ZM87.9935 30.128C87.1188 30.128 86.3295 29.9413 85.6255 29.568C84.9322 29.1947 84.3828 28.6613 83.9775 27.968C83.5828 27.2747 83.3855 26.464 83.3855 25.536C83.3855 24.6187 83.5882 23.8133 83.9935 23.12C84.3988 22.416 84.9535 21.8773 85.6575 21.504C86.3615 21.1307 87.1508 20.944 88.0255 20.944C88.9002 20.944 89.6895 21.1307 90.3935 21.504C91.0975 21.8773 91.6522 22.416 92.0575 23.12C92.4628 23.8133 92.6655 24.6187 92.6655 25.536C92.6655 26.4533 92.4575 27.264 92.0415 27.968C91.6362 28.6613 91.0762 29.1947 90.3615 29.568C89.6575 29.9413 88.8682 30.128 87.9935 30.128ZM87.9935 27.76C88.5162 27.76 88.9588 27.568 89.3215 27.184C89.6948 26.8 89.8815 26.2507 89.8815 25.536C89.8815 24.8213 89.7002 24.272 89.3375 23.888C88.9855 23.504 88.5482 23.312 88.0255 23.312C87.4922 23.312 87.0495 23.504 86.6975 23.888C86.3455 24.2613 86.1695 24.8107 86.1695 25.536C86.1695 26.2507 86.3402 26.8 86.6815 27.184C87.0335 27.568 87.4708 27.76 87.9935 27.76ZM97.509 20.944C98.1383 20.944 98.6877 21.072 99.157 21.328C99.637 21.584 100.005 21.92 100.261 22.336V21.072H102.997V29.984C102.997 30.8053 102.832 31.5467 102.501 32.208C102.181 32.88 101.685 33.4133 101.013 33.808C100.352 34.2027 99.525 34.4 98.533 34.4C97.2103 34.4 96.1383 34.0853 95.317 33.456C94.4957 32.8373 94.0263 31.9947 93.909 30.928H96.613C96.6983 31.2693 96.901 31.536 97.221 31.728C97.541 31.9307 97.9357 32.032 98.405 32.032C98.9703 32.032 99.4183 31.8667 99.749 31.536C100.09 31.216 100.261 30.6987 100.261 29.984V28.72C99.9943 29.136 99.6263 29.4773 99.157 29.744C98.6877 30 98.1383 30.128 97.509 30.128C96.773 30.128 96.1063 29.9413 95.509 29.568C94.9117 29.184 94.437 28.6453 94.085 27.952C93.7437 27.248 93.573 26.4373 93.573 25.52C93.573 24.6027 93.7437 23.7973 94.085 23.104C94.437 22.4107 94.9117 21.8773 95.509 21.504C96.1063 21.1307 96.773 20.944 97.509 20.944ZM100.261 25.536C100.261 24.8533 100.069 24.3147 99.685 23.92C99.3117 23.5253 98.853 23.328 98.309 23.328C97.765 23.328 97.301 23.5253 96.917 23.92C96.5437 24.304 96.357 24.8373 96.357 25.52C96.357 26.2027 96.5437 26.7467 96.917 27.152C97.301 27.5467 97.765 27.744 98.309 27.744C98.853 27.744 99.3117 27.5467 99.685 27.152C100.069 26.7573 100.261 26.2187 100.261 25.536ZM107.712 18.16V30H104.976V18.16H107.712ZM118.111 25.392C118.111 25.648 118.095 25.9147 118.063 26.192H111.871C111.914 26.7467 112.09 27.1733 112.399 27.472C112.719 27.76 113.108 27.904 113.567 27.904C114.25 27.904 114.724 27.616 114.991 27.04H117.903C117.754 27.6267 117.482 28.1547 117.087 28.624C116.703 29.0933 116.218 29.4613 115.631 29.728C115.044 29.9947 114.388 30.128 113.663 30.128C112.788 30.128 112.01 29.9413 111.327 29.568C110.644 29.1947 110.111 28.6613 109.727 27.968C109.343 27.2747 109.151 26.464 109.151 25.536C109.151 24.608 109.338 23.7973 109.711 23.104C110.095 22.4107 110.628 21.8773 111.311 21.504C111.994 21.1307 112.778 20.944 113.663 20.944C114.527 20.944 115.295 21.1253 115.967 21.488C116.639 21.8507 117.162 22.368 117.535 23.04C117.919 23.712 118.111 24.496 118.111 25.392ZM115.311 24.672C115.311 24.2027 115.151 23.8293 114.831 23.552C114.511 23.2747 114.111 23.136 113.631 23.136C113.172 23.136 112.783 23.2693 112.463 23.536C112.154 23.8027 111.962 24.1813 111.887 24.672H115.311ZM129.937 28.016H125.745L125.073 30H122.209L126.273 18.768H129.441L133.505 30H130.609L129.937 28.016ZM129.233 25.904L127.841 21.792L126.465 25.904H129.233ZM143.558 21.072V30H140.822V28.784C140.545 29.1787 140.166 29.4987 139.686 29.744C139.217 29.9787 138.694 30.096 138.118 30.096C137.435 30.096 136.833 29.9467 136.31 29.648C135.787 29.3387 135.382 28.896 135.094 28.32C134.806 27.744 134.662 27.0667 134.662 26.288V21.072H137.382V25.92C137.382 26.5173 137.537 26.9813 137.846 27.312C138.155 27.6427 138.571 27.808 139.094 27.808C139.627 27.808 140.049 27.6427 140.358 27.312C140.667 26.9813 140.822 26.5173 140.822 25.92V21.072H143.558ZM150.499 27.68V30H149.107C148.115 30 147.342 29.76 146.787 29.28C146.233 28.7893 145.955 27.9947 145.955 26.896V23.344H144.867V21.072H145.955V18.896H148.691V21.072H150.483V23.344H148.691V26.928C148.691 27.1947 148.755 27.3867 148.883 27.504C149.011 27.6213 149.225 27.68 149.523 27.68H150.499ZM157.511 20.976C158.535 20.976 159.357 21.3173 159.975 22C160.594 22.672 160.903 23.6 160.903 24.784V30H158.183V25.152C158.183 24.5547 158.029 24.0907 157.719 23.76C157.41 23.4293 156.994 23.264 156.471 23.264C155.949 23.264 155.533 23.4293 155.223 23.76C154.914 24.0907 154.759 24.5547 154.759 25.152V30H152.023V18.16H154.759V22.272C155.037 21.8773 155.415 21.5627 155.895 21.328C156.375 21.0933 156.914 20.976 157.511 20.976ZM171.22 25.392C171.22 25.648 171.205 25.9147 171.173 26.192H164.981C165.023 26.7467 165.199 27.1733 165.509 27.472C165.829 27.76 166.218 27.904 166.677 27.904C167.359 27.904 167.834 27.616 168.101 27.04H171.013C170.863 27.6267 170.591 28.1547 170.197 28.624C169.813 29.0933 169.327 29.4613 168.741 29.728C168.154 29.9947 167.498 30.128 166.773 30.128C165.898 30.128 165.119 29.9413 164.437 29.568C163.754 29.1947 163.221 28.6613 162.837 27.968C162.453 27.2747 162.261 26.464 162.261 25.536C162.261 24.608 162.447 23.7973 162.821 23.104C163.205 22.4107 163.738 21.8773 164.421 21.504C165.103 21.1307 165.887 20.944 166.773 20.944C167.637 20.944 168.405 21.1253 169.077 21.488C169.749 21.8507 170.271 22.368 170.645 23.04C171.029 23.712 171.22 24.496 171.22 25.392ZM168.421 24.672C168.421 24.2027 168.261 23.8293 167.941 23.552C167.621 23.2747 167.221 23.136 166.741 23.136C166.282 23.136 165.893 23.2693 165.573 23.536C165.263 23.8027 165.071 24.1813 164.997 24.672H168.421ZM178.104 20.976C179.149 20.976 179.981 21.3173 180.6 22C181.229 22.672 181.544 23.6 181.544 24.784V30H178.824V25.152C178.824 24.5547 178.669 24.0907 178.36 23.76C178.051 23.4293 177.635 23.264 177.112 23.264C176.589 23.264 176.173 23.4293 175.864 23.76C175.555 24.0907 175.4 24.5547 175.4 25.152V30H172.664V21.072H175.4V22.256C175.677 21.8613 176.051 21.552 176.52 21.328C176.989 21.0933 177.517 20.976 178.104 20.976ZM188.421 27.68V30H187.029C186.037 30 185.264 29.76 184.709 29.28C184.154 28.7893 183.877 27.9947 183.877 26.896V23.344H182.789V21.072H183.877V18.896H186.613V21.072H188.405V23.344H186.613V26.928C186.613 27.1947 186.677 27.3867 186.805 27.504C186.933 27.6213 187.146 27.68 187.445 27.68H188.421ZM191.321 20.144C190.841 20.144 190.446 20.0053 190.137 19.728C189.838 19.44 189.689 19.088 189.689 18.672C189.689 18.2453 189.838 17.8933 190.137 17.616C190.446 17.328 190.841 17.184 191.321 17.184C191.79 17.184 192.174 17.328 192.473 17.616C192.782 17.8933 192.937 18.2453 192.937 18.672C192.937 19.088 192.782 19.44 192.473 19.728C192.174 20.0053 191.79 20.144 191.321 20.144ZM192.681 21.072V30H189.945V21.072H192.681ZM194.12 25.536C194.12 24.608 194.307 23.7973 194.68 23.104C195.064 22.4107 195.592 21.8773 196.264 21.504C196.947 21.1307 197.725 20.944 198.6 20.944C199.72 20.944 200.653 21.2373 201.4 21.824C202.157 22.4107 202.653 23.2373 202.888 24.304H199.976C199.731 23.6213 199.256 23.28 198.552 23.28C198.051 23.28 197.651 23.4773 197.352 23.872C197.053 24.256 196.904 24.8107 196.904 25.536C196.904 26.2613 197.053 26.8213 197.352 27.216C197.651 27.6 198.051 27.792 198.552 27.792C199.256 27.792 199.731 27.4507 199.976 26.768H202.888C202.653 27.8133 202.157 28.6347 201.4 29.232C200.643 29.8293 199.709 30.128 198.6 30.128C197.725 30.128 196.947 29.9413 196.264 29.568C195.592 29.1947 195.064 28.6613 194.68 27.968C194.307 27.2747 194.12 26.464 194.12 25.536ZM203.807 25.52C203.807 24.6027 203.978 23.7973 204.319 23.104C204.671 22.4107 205.146 21.8773 205.743 21.504C206.341 21.1307 207.007 20.944 207.743 20.944C208.373 20.944 208.922 21.072 209.391 21.328C209.871 21.584 210.239 21.92 210.495 22.336V21.072H213.231V30H210.495V28.736C210.229 29.152 209.855 29.488 209.375 29.744C208.906 30 208.357 30.128 207.727 30.128C207.002 30.128 206.341 29.9413 205.743 29.568C205.146 29.184 204.671 28.6453 204.319 27.952C203.978 27.248 203.807 26.4373 203.807 25.52ZM210.495 25.536C210.495 24.8533 210.303 24.3147 209.919 23.92C209.546 23.5253 209.087 23.328 208.543 23.328C207.999 23.328 207.535 23.5253 207.151 23.92C206.778 24.304 206.591 24.8373 206.591 25.52C206.591 26.2027 206.778 26.7467 207.151 27.152C207.535 27.5467 207.999 27.744 208.543 27.744C209.087 27.744 209.546 27.5467 209.919 27.152C210.303 26.7573 210.495 26.2187 210.495 25.536ZM220.187 27.68V30H218.795C217.803 30 217.029 29.76 216.475 29.28C215.92 28.7893 215.643 27.9947 215.643 26.896V23.344H214.555V21.072H215.643V18.896H218.379V21.072H220.171V23.344H218.379V26.928C218.379 27.1947 218.443 27.3867 218.571 27.504C218.699 27.6213 218.912 27.68 219.211 27.68H220.187ZM225.775 30.128C224.9 30.128 224.111 29.9413 223.407 29.568C222.713 29.1947 222.164 28.6613 221.759 27.968C221.364 27.2747 221.167 26.464 221.167 25.536C221.167 24.6187 221.369 23.8133 221.775 23.12C222.18 22.416 222.735 21.8773 223.439 21.504C224.143 21.1307 224.932 20.944 225.807 20.944C226.681 20.944 227.471 21.1307 228.175 21.504C228.879 21.8773 229.433 22.416 229.839 23.12C230.244 23.8133 230.447 24.6187 230.447 25.536C230.447 26.4533 230.239 27.264 229.823 27.968C229.417 28.6613 228.857 29.1947 228.143 29.568C227.439 29.9413 226.649 30.128 225.775 30.128ZM225.775 27.76C226.297 27.76 226.74 27.568 227.103 27.184C227.476 26.8 227.663 26.2507 227.663 25.536C227.663 24.8213 227.481 24.272 227.119 23.888C226.767 23.504 226.329 23.312 225.807 23.312C225.273 23.312 224.831 23.504 224.479 23.888C224.127 24.2613 223.951 24.8107 223.951 25.536C223.951 26.2507 224.121 26.8 224.463 27.184C224.815 27.568 225.252 27.76 225.775 27.76ZM234.634 22.56C234.954 22.0693 235.354 21.6853 235.834 21.408C236.314 21.12 236.848 20.976 237.434 20.976V23.872H236.682C236 23.872 235.488 24.0213 235.146 24.32C234.805 24.608 234.634 25.12 234.634 25.856V30H231.898V21.072H234.634V22.56ZM246.197 30.128C245.322 30.128 244.533 29.9413 243.829 29.568C243.135 29.1947 242.586 28.6613 242.181 27.968C241.786 27.2747 241.589 26.464 241.589 25.536C241.589 24.6187 241.791 23.8133 242.197 23.12C242.602 22.416 243.157 21.8773 243.861 21.504C244.565 21.1307 245.354 20.944 246.229 20.944C247.103 20.944 247.893 21.1307 248.597 21.504C249.301 21.8773 249.855 22.416 250.261 23.12C250.666 23.8133 250.869 24.6187 250.869 25.536C250.869 26.4533 250.661 27.264 250.245 27.968C249.839 28.6613 249.279 29.1947 248.565 29.568C247.861 29.9413 247.071 30.128 246.197 30.128ZM246.197 27.76C246.719 27.76 247.162 27.568 247.525 27.184C247.898 26.8 248.085 26.2507 248.085 25.536C248.085 24.8213 247.903 24.272 247.541 23.888C247.189 23.504 246.751 23.312 246.229 23.312C245.695 23.312 245.253 23.504 244.901 23.888C244.549 24.2613 244.373 24.8107 244.373 25.536C244.373 26.2507 244.543 26.8 244.885 27.184C245.237 27.568 245.674 27.76 246.197 27.76ZM259.343 30.128C258.564 30.128 257.871 29.9947 257.263 29.728C256.655 29.4613 256.175 29.0987 255.823 28.64C255.471 28.1707 255.273 27.648 255.231 27.072H257.935C257.967 27.3813 258.111 27.632 258.367 27.824C258.623 28.016 258.937 28.112 259.311 28.112C259.652 28.112 259.913 28.048 260.095 27.92C260.287 27.7813 260.383 27.6053 260.383 27.392C260.383 27.136 260.249 26.9493 259.983 26.832C259.716 26.704 259.284 26.5653 258.687 26.416C258.047 26.2667 257.513 26.112 257.087 25.952C256.66 25.7813 256.292 25.52 255.983 25.168C255.673 24.8053 255.519 24.32 255.519 23.712C255.519 23.2 255.657 22.736 255.935 22.32C256.223 21.8933 256.639 21.5573 257.183 21.312C257.737 21.0667 258.393 20.944 259.151 20.944C260.271 20.944 261.151 21.2213 261.791 21.776C262.441 22.3307 262.815 23.0667 262.911 23.984H260.383C260.34 23.6747 260.201 23.4293 259.967 23.248C259.743 23.0667 259.444 22.976 259.071 22.976C258.751 22.976 258.505 23.04 258.335 23.168C258.164 23.2853 258.079 23.4507 258.079 23.664C258.079 23.92 258.212 24.112 258.479 24.24C258.756 24.368 259.183 24.496 259.759 24.624C260.42 24.7947 260.959 24.9653 261.375 25.136C261.791 25.296 262.153 25.5627 262.463 25.936C262.783 26.2987 262.948 26.7893 262.959 27.408C262.959 27.9307 262.809 28.4 262.511 28.816C262.223 29.2213 261.801 29.5413 261.247 29.776C260.703 30.0107 260.068 30.128 259.343 30.128ZM266.009 20.144C265.529 20.144 265.134 20.0053 264.825 19.728C264.526 19.44 264.377 19.088 264.377 18.672C264.377 18.2453 264.526 17.8933 264.825 17.616C265.134 17.328 265.529 17.184 266.009 17.184C266.478 17.184 266.862 17.328 267.161 17.616C267.47 17.8933 267.625 18.2453 267.625 18.672C267.625 19.088 267.47 19.44 267.161 19.728C266.862 20.0053 266.478 20.144 266.009 20.144ZM267.369 21.072V30H264.633V21.072H267.369ZM280.743 20.976C281.853 20.976 282.733 21.312 283.383 21.984C284.045 22.656 284.375 23.5893 284.375 24.784V30H281.655V25.152C281.655 24.576 281.501 24.1333 281.191 23.824C280.893 23.504 280.477 23.344 279.943 23.344C279.41 23.344 278.989 23.504 278.679 23.824C278.381 24.1333 278.231 24.576 278.231 25.152V30H275.511V25.152C275.511 24.576 275.357 24.1333 275.047 23.824C274.749 23.504 274.333 23.344 273.799 23.344C273.266 23.344 272.845 23.504 272.535 23.824C272.237 24.1333 272.087 24.576 272.087 25.152V30H269.351V21.072H272.087V22.192C272.365 21.8187 272.727 21.5253 273.175 21.312C273.623 21.088 274.13 20.976 274.695 20.976C275.367 20.976 275.965 21.12 276.487 21.408C277.021 21.696 277.437 22.1067 277.735 22.64C278.045 22.1493 278.466 21.7493 278.999 21.44C279.533 21.1307 280.114 20.976 280.743 20.976ZM287.665 20.144C287.185 20.144 286.79 20.0053 286.481 19.728C286.182 19.44 286.033 19.088 286.033 18.672C286.033 18.2453 286.182 17.8933 286.481 17.616C286.79 17.328 287.185 17.184 287.665 17.184C288.134 17.184 288.518 17.328 288.817 17.616C289.126 17.8933 289.281 18.2453 289.281 18.672C289.281 19.088 289.126 19.44 288.817 19.728C288.518 20.0053 288.134 20.144 287.665 20.144ZM289.025 21.072V30H286.289V21.072H289.025ZM293.744 18.16V30H291.008V18.16H293.744ZM295.182 25.52C295.182 24.6027 295.353 23.7973 295.694 23.104C296.046 22.4107 296.521 21.8773 297.118 21.504C297.716 21.1307 298.382 20.944 299.118 20.944C299.748 20.944 300.297 21.072 300.766 21.328C301.246 21.584 301.614 21.92 301.87 22.336V21.072H304.606V30H301.87V28.736C301.604 29.152 301.23 29.488 300.75 29.744C300.281 30 299.732 30.128 299.102 30.128C298.377 30.128 297.716 29.9413 297.118 29.568C296.521 29.184 296.046 28.6453 295.694 27.952C295.353 27.248 295.182 26.4373 295.182 25.52ZM301.87 25.536C301.87 24.8533 301.678 24.3147 301.294 23.92C300.921 23.5253 300.462 23.328 299.918 23.328C299.374 23.328 298.91 23.5253 298.526 23.92C298.153 24.304 297.966 24.8373 297.966 25.52C297.966 26.2027 298.153 26.7467 298.526 27.152C298.91 27.5467 299.374 27.744 299.918 27.744C300.462 27.744 300.921 27.5467 301.294 27.152C301.678 26.7573 301.87 26.2187 301.87 25.536ZM309.322 22.56C309.642 22.0693 310.042 21.6853 310.522 21.408C311.002 21.12 311.535 20.976 312.122 20.976V23.872H311.37C310.687 23.872 310.175 24.0213 309.834 24.32C309.492 24.608 309.322 25.12 309.322 25.856V30H306.586V21.072H309.322V22.56Z" fill="#081754"/>
</svg>
