<svg width="24" height="24" viewBox="0 0 24 24" fill="none" xmlns="http://www.w3.org/2000/svg">
<path fill-rule="evenodd" clip-rule="evenodd" d="M12.5304 1.71967C12.2375 1.42678 11.7626 1.42678 11.4697 1.71967L7.71969 5.46967C7.50519 5.68418 7.44102 6.00675 7.55711 6.28701C7.6732 6.56727 7.94667 6.75 8.25001 6.75H10.5V10.5C10.5 11.3284 11.1716 12 12 12C12.8284 12 13.5 11.3284 13.5 10.5V6.75H15.75C16.0534 6.75 16.3268 6.56727 16.4429 6.28701C16.5589 6.00675 16.4949 5.68418 16.2804 5.46967L12.5304 1.71967ZM2.25 13.5C2.25 13.0858 2.58579 12.75 3 12.75H8.625C9.03921 12.75 9.375 13.0858 9.375 13.5V14.25C9.375 15.6997 10.5503 16.875 12 16.875C13.4497 16.875 14.625 15.6997 14.625 14.25V13.5C14.625 13.0858 14.9608 12.75 15.375 12.75H21C21.4142 12.75 21.75 13.0858 21.75 13.5V19.5C21.75 20.7426 20.7426 21.75 19.5 21.75H4.5C3.25735 21.75 2.25 20.7426 2.25 19.5V13.5Z" fill="#081754"/>
</svg>
