<svg width="25" height="24" viewBox="0 0 25 24" fill="none" xmlns="http://www.w3.org/2000/svg">
<path fill-rule="evenodd" clip-rule="evenodd" d="M8.11328 21.5424C9.449 22.1572 10.9354 22.5 12.5 22.5C18.299 22.5 23 17.799 23 12C23 6.20101 18.299 1.5 12.5 1.5C6.70102 1.5 2.00001 6.20101 2.00001 12C2.00001 14.0121 2.56666 15.8938 3.5492 17.492L2.04796 21.4862C1.95299 21.7388 2.00113 22.023 2.17401 22.2303C2.34689 22.4376 2.61783 22.536 2.88346 22.488L8.11328 21.5424ZM9.5 12C9.5 12.8284 8.82842 13.5 8 13.5C7.17158 13.5 6.5 12.8284 6.5 12C6.5 11.1716 7.17158 10.5 8 10.5C8.82842 10.5 9.5 11.1716 9.5 12ZM12.5 13.5C13.3284 13.5 14 12.8284 14 12C14 11.1716 13.3284 10.5 12.5 10.5C11.6716 10.5 11 11.1716 11 12C11 12.8284 11.6716 13.5 12.5 13.5ZM17 13.5C17.8285 13.5 18.5 12.8284 18.5 12C18.5 11.1716 17.8285 10.5 17 10.5C16.1716 10.5 15.5 11.1716 15.5 12C15.5 12.8284 16.1716 13.5 17 13.5Z" fill="#081754"/>
</svg>
